<?xml version="1.0" standalone="no"?>
<!DOCTYPE svg PUBLIC "-//W3C//DTD SVG 20010904//EN"
 "http://www.w3.org/TR/2001/REC-SVG-20010904/DTD/svg10.dtd">
<svg version="1.0" xmlns="http://www.w3.org/2000/svg"
 width="512.000000pt" height="512.000000pt" viewBox="0 0 512.000000 512.000000"
 preserveAspectRatio="xMidYMid meet">
<metadata>
Created by potrace 1.11, written by Peter Selinger 2001-2013
</metadata>
<g transform="translate(0.000000,512.000000) scale(0.100000,-0.100000)"
fill="#000000" stroke="none">
<path d="M1485 5032 c-32 -7 -62 -31 -75 -63 -23 -54 -16 -292 11 -394 6 -22
12 -47 14 -55 16 -78 76 -211 140 -310 135 -208 383 -376 612 -416 15 -3 35
-7 43 -9 30 -8 136 -18 178 -17 33 1 42 -2 43 -16 1 -22 1 -384 0 -396 -1 -5
-30 20 -66 54 -196 192 -497 317 -811 336 -152 10 -173 -11 -178 -173 -15
-508 303 -945 766 -1052 97 -23 152 -31 231 -32 51 -1 57 -4 58 -23 1 -25 1
-228 0 -238 -1 -5 -341 -8 -756 -8 -837 0 -802 3 -830 -65 -8 -18 -12 -43 -10
-56 10 -50 16 -82 74 -359 33 -157 62 -297 65 -310 2 -14 19 -92 36 -175 18
-82 34 -163 37 -180 2 -16 8 -46 13 -65 5 -19 12 -51 15 -70 3 -19 17 -84 30
-145 14 -60 26 -121 29 -135 2 -14 14 -70 25 -125 12 -55 33 -156 47 -225 31
-157 47 -195 88 -212 25 -10 268 -13 1236 -13 663 -1 1218 3 1235 7 45 12 73
47 84 103 6 28 22 104 36 170 14 65 28 131 30 145 3 14 18 90 35 170 17 80 42
201 57 270 14 69 27 132 28 140 11 49 46 220 51 244 3 16 6 32 8 35 2 3 7 23
10 43 3 21 17 90 31 153 14 64 27 131 31 148 3 18 14 70 24 117 10 47 22 101
25 120 3 19 10 51 15 70 17 68 19 104 5 136 -28 67 6 64 -830 64 l-755 0 -1
28 c0 15 -1 218 -1 452 l0 425 33 1 c52 1 192 14 198 18 3 2 22 7 41 10 169
26 390 151 516 289 119 131 224 335 249 486 3 19 7 37 9 40 9 14 19 145 18
239 -1 110 -14 149 -58 173 -36 19 -204 3 -380 -35 -11 -2 -62 -18 -112 -35
-176 -59 -331 -153 -449 -271 l-63 -63 -1 89 c-1 49 -1 184 -1 299 1 238 -7
276 -61 294 -51 19 -84 13 -122 -20 -19 -17 -35 -27 -35 -21 0 16 -100 111
-175 166 -152 113 -388 205 -590 232 -89 12 -181 19 -200 16z m308 -258 c308
-77 531 -261 618 -510 30 -86 31 -90 36 -192 l5 -93 -78 5 c-44 3 -88 8 -99
10 -90 20 -124 30 -176 51 -273 110 -460 378 -486 694 l-6 73 44 -7 c24 -3 88
-17 142 -31z m1724 -672 c-4 -38 -14 -98 -22 -133 -9 -35 -17 -71 -20 -80 -9
-41 -76 -172 -115 -225 -144 -196 -333 -294 -618 -320 l-73 -7 6 74 c21 272
168 499 405 626 114 61 307 122 415 131 l28 2 -6 -68z m-1789 -591 c330 -62
590 -263 684 -528 28 -82 30 -88 35 -191 l5 -93 -82 6 c-308 20 -543 176 -673
445 -43 88 -74 205 -83 307 l-7 73 29 -4 c16 -2 57 -9 92 -15z m2298 -1510 c1
0 -2 -19 -7 -41 -5 -22 -11 -55 -14 -73 -3 -18 -9 -46 -13 -62 l-8 -30 -1425
-1 -1424 -1 -21 103 c-12 57 -20 105 -18 106 2 3 2928 2 2930 -1z m-91 -448
c-7 -30 -64 -301 -71 -343 -3 -14 -9 -41 -14 -60 -5 -19 -11 -47 -14 -62 -5
-29 -62 -308 -101 -493 -9 -44 -19 -89 -21 -100 -2 -11 -12 -58 -22 -105 l-19
-85 -1114 0 -1114 0 -22 105 c-12 58 -24 116 -27 130 -19 100 -93 453 -101
480 -2 8 -6 32 -9 52 -3 20 -15 77 -25 125 -11 48 -32 147 -46 218 -15 72 -29
138 -31 148 -5 16 65 17 1376 17 l1382 0 -7 -27z"/>
</g>
</svg>
